<svg width="33" height="33" viewBox="0 0 33 33" fill="none" xmlns="http://www.w3.org/2000/svg">
<path d="M16.5684 32.0311C7.79685 32.0311 0.664062 24.8983 0.664062 16.1268C0.664062 7.35526 7.79685 0.222473 16.5684 0.222473C25.3399 0.222473 32.4727 7.35526 32.4727 16.1268C32.4727 24.8983 25.3399 32.0311 16.5684 32.0311ZM16.5684 1.55133C8.53219 1.55133 1.98767 8.0906 1.98767 16.1321C1.98767 24.1683 8.52693 30.7128 16.5684 30.7128C24.6098 30.7128 31.1491 24.1735 31.1491 16.1321C31.1491 8.0906 24.6098 1.55133 16.5684 1.55133Z" fill="white"/>
<path d="M23.8584 24.0789H9.2829C8.91523 24.0789 8.62109 23.7796 8.62109 23.4172C8.62109 23.0547 8.92048 22.7553 9.2829 22.7553H23.8636C24.2313 22.7553 24.5254 23.0547 24.5254 23.4172C24.5254 23.7796 24.226 24.0789 23.8584 24.0789Z" fill="white"/>
<path d="M16.5681 21.1008C16.2004 21.1008 15.9062 20.8014 15.9062 20.439V7.51806C15.9062 7.15039 16.2056 6.85626 16.5681 6.85626C16.9305 6.85626 17.2299 7.15564 17.2299 7.51806V20.439C17.2351 20.8014 16.9357 21.1008 16.5681 21.1008Z" fill="white"/>
<path d="M16.5679 21.4317C16.3998 21.4317 16.2265 21.3687 16.1004 21.2374L11.4626 16.5995C11.2052 16.3421 11.2052 15.922 11.4626 15.6646C11.7199 15.4072 12.1401 15.4072 12.3975 15.6646L16.5679 19.835L20.7383 15.6646C20.9957 15.4072 21.4159 15.4072 21.6733 15.6646C21.9306 15.922 21.9306 16.3421 21.6733 16.5995L17.0354 21.2374C16.9093 21.3635 16.7412 21.4317 16.5679 21.4317Z" fill="white"/>
</svg>
