<svg width="76" height="66" viewBox="0 0 76 66" fill="none" xmlns="http://www.w3.org/2000/svg">
<path d="M74.713 56.963H67.1133V21.5198C67.1133 19.4242 65.4133 17.7249 63.3168 17.7249H55.7172V20.2571H63.3168C64.0156 20.2571 64.5801 20.8213 64.5801 21.5198V56.963H11.3961V21.5198C11.3961 20.8213 11.9605 20.2571 12.6593 20.2571H25.3254V17.7249H12.6593C10.5629 17.7249 8.86292 19.4242 8.86292 21.5198V56.963H1.26325C0.564432 56.963 0 57.5271 0 58.2257V62.0205C0 64.1161 1.70002 65.8153 3.79647 65.8153H72.1798C74.2762 65.8153 75.9762 64.1161 75.9762 62.0205V58.2257C75.9829 57.5271 75.4118 56.963 74.713 56.963ZM73.4497 62.0272C73.4497 62.7257 72.8853 63.2899 72.1865 63.2899H3.8032C3.10438 63.2899 2.53995 62.7257 2.53995 62.0272V59.4951H28.6111L29.5049 60.3884C29.7401 60.6235 30.0626 60.7578 30.3985 60.7578H45.5978C45.9338 60.7578 46.2563 60.6235 46.4915 60.3884L47.3852 59.4951H73.4565V62.0272H73.4497Z" fill="black"/>
<path d="M56.9875 22.7825H50.6578C49.9589 22.7825 49.3945 23.3467 49.3945 24.0452V26.5773H44.3281C43.6292 26.5773 43.0648 27.1415 43.0648 27.8401V31.6349H37.9984C37.2996 31.6349 36.7352 32.1991 36.7352 32.8976V36.6924H31.6687C30.9699 36.6924 30.4055 37.2566 30.4055 37.9552V41.75H25.339C24.6402 41.75 24.0758 42.3142 24.0758 43.0127V45.5448H19.0094C18.3106 45.5448 17.7462 46.109 17.7462 46.8076V51.8718H13.9497V54.404H62.074V51.8718H58.2775V24.0519C58.2506 23.3534 57.6863 22.7825 56.9875 22.7825ZM20.2592 48.1038H24.0557V51.8987H20.2592V48.1038ZM26.5956 44.3023H30.392V51.8987H26.5956V44.3023ZM32.9253 39.238H36.7217V51.8987H32.9253V39.238ZM39.255 34.1805H43.0514V51.8987H39.255V34.1805ZM45.5846 29.1162H49.3811V51.8987H45.5846V29.1162ZM51.921 51.8987V25.3146H55.7175V51.8987H51.921Z" fill="black"/>
<path d="M44.3211 6.62928e-06C38.0317 -0.00670991 32.925 5.09114 32.925 11.3778C32.925 13.0234 33.2812 14.6555 33.9733 16.1533L31.6617 18.4638L31.2922 18.0944C30.795 17.5973 29.9953 17.5973 29.4981 18.0944L15.6158 31.9707C13.3715 34.2141 13.3715 37.8477 15.6158 40.091C17.8601 42.3343 21.4953 42.3343 23.7395 40.091L37.6218 26.2147C38.1191 25.7176 38.1191 24.9184 37.6218 24.4213L37.2523 24.0519L39.5638 21.7414C45.282 24.3676 52.0484 21.8691 54.6757 16.1533C57.3029 10.4375 54.8034 3.67395 49.0852 1.04779C47.5935 0.355984 45.9673 6.62928e-06 44.3211 6.62928e-06ZM21.9455 38.2977C20.689 39.5537 18.6597 39.5537 17.4032 38.2977C16.1467 37.0417 16.1467 35.0133 17.4032 33.7573L26.5953 24.5691L31.1376 29.1095L21.9455 38.2977ZM32.925 27.3229L28.3827 22.7825L30.3918 20.7743L34.9341 25.3146L32.925 27.3229ZM35.4582 22.2586L33.4491 20.2504L35.3239 18.3765C35.9084 19.1287 36.5804 19.8004 37.333 20.3847L35.4582 22.2586ZM44.3211 20.2504C39.4226 20.2504 35.4582 16.2809 35.4582 11.3913C35.4582 6.50162 39.4293 2.53214 44.3211 2.53214C49.2128 2.53214 53.184 6.50162 53.184 11.3913C53.1773 16.2809 49.2128 20.2504 44.3211 20.2504Z" fill="black"/>
</svg>
