<svg width="71" height="43" viewBox="0 0 71 43" fill="none" xmlns="http://www.w3.org/2000/svg">
<path d="M35.2566 0C15.8174 0 0 15.8107 0 35.2417C0 36.538 1.05494 37.5925 2.35179 37.5925H16.4558C17.7526 37.5925 18.8076 36.538 18.8076 35.2417C18.8076 26.1743 26.1855 18.7929 35.2634 18.7929C40.827 18.7929 45.9741 21.6071 49.0046 26.2146C43.7634 28.0684 39.6982 29.5595 36.708 30.7349C36.2444 30.614 35.7673 30.5334 35.2634 30.5334C32.0246 30.5334 29.3839 33.1663 29.3839 36.4103C29.3839 39.6544 32.0179 42.2873 35.2634 42.2873C37.5748 42.2873 39.5638 40.9306 40.5247 38.9828C43.5955 37.3104 47.5397 35.0402 51.5042 32.7162C51.6318 33.5491 51.7192 34.3887 51.7192 35.2417C51.7192 36.538 52.7741 37.5925 54.0709 37.5925H68.1749C69.4718 37.5925 70.5267 36.538 70.5267 35.2417C70.52 15.8107 54.7026 0 35.2566 0ZM47.6875 21.1571C44.5899 18.4235 40.6456 16.751 36.4325 16.4891V2.38436C44.6168 2.67317 52.0552 5.96429 57.6659 11.1898L47.6875 21.1571ZM16.4558 35.2417H2.35179C2.35179 26.5908 5.7115 18.719 11.1878 12.842L21.1728 22.8228C18.2499 26.1475 16.4558 30.4864 16.4558 35.2417ZM22.8392 21.1705L12.8542 11.1898C18.4649 5.96429 25.8965 2.67317 34.0875 2.38436V16.5092C29.7871 16.7779 25.8764 18.4839 22.8392 21.1705ZM60.2394 24.8042C54.6018 28.1759 46.7871 32.8237 41.0891 35.9939C40.9816 34.5297 40.3567 33.2066 39.3689 32.2394C44.0994 30.4326 50.9599 27.9878 60.2394 24.8042ZM35.2566 39.9432C33.3147 39.9432 31.729 38.3649 31.729 36.4171C31.729 34.4693 33.308 32.8909 35.2566 32.8909C37.2053 32.8909 38.7843 34.4693 38.7843 36.4171C38.7843 38.3649 37.1985 39.9432 35.2566 39.9432ZM54.0642 35.2417C54.0642 33.9588 53.9298 32.6827 53.6678 31.4401C56.4295 29.808 59.124 28.2027 61.4489 26.8124C62.5038 26.1743 62.8936 24.9049 62.3762 23.79C61.8588 22.6885 60.6493 22.1646 59.4868 22.5675C56.5034 23.5952 53.7686 24.5355 51.2757 25.4154C50.7046 24.4885 50.0595 23.6221 49.354 22.8161L59.3323 12.842C64.8086 18.719 68.1683 26.5908 68.1683 35.2417H54.0642Z" fill="black"/>
</svg>
