<svg width="67" height="67" viewBox="0 0 67 67" fill="none" xmlns="http://www.w3.org/2000/svg">
<path d="M61.999 0H12.4233C10.0513 0 8.12287 1.92764 8.12287 4.29858V13.0905C8.12287 13.6278 8.55964 14.0644 9.09719 14.0644C9.63474 14.0644 10.0715 13.6278 10.0715 13.0905V4.29858C10.0715 2.99557 11.1331 1.94107 12.43 1.94107H62.0057C63.3092 1.94107 64.3642 3.00229 64.3642 4.29858V37.3372C64.3642 38.338 63.746 39.1977 62.8456 39.5403C62.4156 38.7276 61.5152 38.1634 60.4804 38.1634H59.365C58.7333 38.1634 58.1487 38.3716 57.6985 38.7208C57.2416 38.3716 56.6638 38.1634 56.0321 38.1634H54.9167C54.2851 38.1634 53.7005 38.3716 53.2503 38.7208C52.7934 38.3716 52.2155 38.1634 51.5839 38.1634H50.4685C50.2266 38.1634 49.9914 38.197 49.7697 38.2507V37.2029H60.729C61.3673 37.2029 61.8847 36.679 61.8847 36.0409V5.59487C61.8847 4.9568 61.3673 4.43292 60.729 4.43292H15.1312C14.4929 4.43292 13.9822 4.9568 13.9822 5.59487V34.5096L10.3537 38.4388C10.179 38.1029 10.0782 37.7268 10.0782 37.3372V17.0734C10.0782 16.5361 9.64143 16.0995 9.10388 16.0995C8.56632 16.0995 8.1296 16.5361 8.1296 17.0734V23.3467L1.51097 33.6096C-0.551885 36.8066 -0.498122 40.897 1.64536 44.0403L5.85844 50.2128C6.44974 51.0793 6.78572 52.0935 6.82603 53.148L7.08137 60.0593C7.10153 60.5832 7.53157 60.9929 8.04897 60.9929C8.06241 60.9929 8.07584 60.9929 8.08255 60.9929C8.62011 60.9727 9.03672 60.5227 9.01656 59.9854L8.76122 53.0741C8.70747 51.6569 8.25726 50.2934 7.45766 49.118L3.24458 42.9455C1.54458 40.4537 1.49756 37.2029 3.13709 34.664L8.12287 26.9333V37.344C8.12287 38.2776 8.43194 39.1843 8.98293 39.9231L8.32444 40.6351C7.9616 41.0313 7.98849 41.6425 8.37821 42.0052C8.77465 42.3679 9.3861 42.341 9.74895 41.9515L19.9557 30.8894C20.4597 30.3386 21.313 30.3319 21.8371 30.8424C22.2605 31.2521 22.3545 31.8968 22.0656 32.414L15.9308 43.4896C15.5008 44.262 15.5881 45.2023 16.1526 45.8807C17.3755 47.365 17.7383 49.4069 17.1067 51.2203C16.8043 52.08 16.643 52.9801 16.6229 53.8868L16.5019 58.951C16.4885 59.4884 16.9118 59.9317 17.4494 59.9451C17.4561 59.9451 17.4628 59.9451 17.4695 59.9451C17.9936 59.9451 18.4304 59.522 18.4371 58.9981L18.5581 53.9338C18.5715 53.2286 18.6992 52.53 18.9344 51.8584C19.7877 49.4136 19.2972 46.6464 17.651 44.6448C17.5972 44.5844 17.5905 44.4971 17.6308 44.4299L19.1763 41.6425H43.3661V46.2568L40.2752 44.7523C39.0724 44.168 37.6479 44.4568 36.7341 45.4844C35.5649 46.7941 35.585 48.8292 36.7744 50.1188L42.5934 56.4189C43.0839 56.9495 43.3661 57.7018 43.3661 58.4742V65.3183C43.3661 65.8557 43.8028 66.2922 44.3404 66.2922C44.8779 66.2922 45.3147 65.8557 45.3147 65.3183V58.4742C45.3147 57.198 44.8578 56.0025 44.0246 55.1025L38.2056 48.8024C37.7017 48.2583 37.6949 47.3314 38.1922 46.774C38.5281 46.3978 39.0119 46.2904 39.4352 46.4986L43.9238 48.6815C44.5688 48.9972 45.3214 48.5203 45.3214 47.8083V31.1983C45.3214 30.3789 45.8858 29.714 46.5779 29.714C47.27 29.714 47.8345 30.3789 47.8345 31.1983V47.8083C47.8345 48.3456 48.2712 48.7822 48.8088 48.7822C49.3463 48.7822 49.7831 48.3456 49.7831 47.8083V40.6216C49.7831 40.3395 50.1056 40.1044 50.4819 40.1044H51.5974C51.9736 40.1044 52.2962 40.3395 52.2962 40.6216V47.8016C52.2962 48.3389 52.7329 48.7755 53.2705 48.7755C53.808 48.7755 54.2448 48.3389 54.2448 47.8016V40.6216C54.2448 40.3395 54.5673 40.1044 54.9436 40.1044H56.059C56.4353 40.1044 56.7578 40.3395 56.7578 40.6216V47.8016C56.7578 48.3389 57.1946 48.7755 57.7322 48.7755C58.2697 48.7755 58.7064 48.3389 58.7064 47.8016V40.6216C58.7064 40.3395 59.029 40.1044 59.4053 40.1044H60.5207C60.897 40.1044 61.2195 40.3395 61.2195 40.6216V47.8016C61.2195 47.9024 61.2397 48.03 61.2733 48.1173L62.1871 50.7703C62.4021 51.3882 62.4828 52.0666 62.429 52.7315C62.382 53.2689 62.7851 53.7323 63.316 53.7793C63.3429 53.7793 63.3697 53.7793 63.3966 53.7793C63.8938 53.7793 64.3239 53.3965 64.3642 52.886C64.4381 51.9591 64.3239 51.0054 64.0215 50.1322L63.1614 47.6337V41.4813C65.016 40.991 66.3464 39.3119 66.3464 37.3305V4.29186C66.2994 1.92764 64.3709 0 61.999 0ZM20.2446 39.6947L21.6221 37.2029H43.3526V39.6947H20.2446ZM46.5578 27.7662C44.8511 27.7662 43.4534 29.2035 43.3661 31.0035H40.2483C39.8653 31.0035 39.5495 30.6946 39.5495 30.305V26.1206C39.5495 25.7378 39.8586 25.4221 40.2483 25.4221H44.6159C45.1534 25.4221 45.5902 24.9855 45.5902 24.4482C45.5902 23.9109 45.1534 23.4743 44.6159 23.4743H40.2483C38.7902 23.4743 37.6076 24.6564 37.6076 26.1139V30.2983C37.6076 31.7558 38.7902 32.9379 40.2483 32.9379H43.3594V35.2484H22.704L23.7656 33.3342C24.4711 32.058 24.236 30.4528 23.1945 29.4319C21.8842 28.1557 19.7743 28.2027 18.5312 29.5528L15.9174 32.3871V6.36056H59.9361V35.2484H49.7629V32.9379H53.2906C54.7487 32.9379 55.9313 31.7558 55.9313 30.2983V26.1139C55.9313 24.6564 54.7487 23.4743 53.2906 23.4743H48.5064C47.9689 23.4743 47.5321 23.9109 47.5321 24.4482C47.5321 24.9855 47.9689 25.4221 48.5064 25.4221H53.2906C53.6736 25.4221 53.9895 25.731 53.9895 26.1206V30.305C53.9895 30.6879 53.6803 31.0035 53.2906 31.0035H49.7562C49.6621 29.2035 48.2645 27.7662 46.5578 27.7662Z" fill="black"/>
<path d="M13.0145 21.6071V20.0287C13.0145 19.4914 12.5778 19.0548 12.0402 19.0548C11.5027 19.0548 11.0659 19.4914 11.0659 20.0287V21.6071C11.0659 22.1444 11.5027 22.581 12.0402 22.581C12.5778 22.5743 13.0145 22.1444 13.0145 21.6071Z" fill="black"/>
<path d="M62.3014 55.6868C61.8444 55.4047 61.2464 55.539 60.9642 55.9958L59.7749 57.8966C59.2373 58.7563 58.9551 59.757 58.9551 60.7981V65.3049C58.9551 65.8422 59.3918 66.2788 59.9294 66.2788C60.4669 66.2788 60.9037 65.8422 60.9037 65.3049V60.7981C60.9037 60.1264 61.0852 59.4749 61.4279 58.9242L62.6172 57.0234C62.8927 56.5667 62.7516 55.9689 62.3014 55.6868Z" fill="black"/>
<path d="M43.7356 14.8033H51.0059C51.5435 14.8033 51.9803 14.3667 51.9803 13.8293C51.9803 13.292 51.5435 12.8554 51.0059 12.8554H43.7356C43.198 12.8554 42.7612 13.292 42.7612 13.8293C42.7679 14.3667 43.198 14.8033 43.7356 14.8033Z" fill="black"/>
<path d="M57.1609 18.2892C57.1609 17.7518 56.7241 17.3152 56.1866 17.3152H43.7356C43.198 17.3152 42.7612 17.7518 42.7612 18.2892C42.7612 18.8265 43.198 19.263 43.7356 19.263H56.1866C56.7241 19.2563 57.1609 18.8265 57.1609 18.2892Z" fill="black"/>
</svg>
