<svg width="52" height="65" viewBox="0 0 52 65" fill="none" xmlns="http://www.w3.org/2000/svg">
<path fill-rule="evenodd" clip-rule="evenodd" d="M49.9286 44.7724C47.9195 41.9246 36.819 39.9567 32.8546 38.7947C32.8411 38.7947 32.8546 36.7663 32.8546 36.4775C36.2546 35.0603 39.1372 32.7028 41.2337 29.667C49.6867 17.2817 40.9716 0 25.564 0C14.3023 0 5.52009 9.79271 6.69598 20.9489C6.78334 21.7414 6.59518 22.4399 6.15842 23.1049C4.12916 26.087 3.96119 30.0364 5.70823 33.1998C6.21219 34.0999 6.25922 35.0805 5.85606 36.0208C5.02958 37.9753 4.87501 40.1582 5.41928 42.2537C2.97342 43.0194 1.4683 43.8993 0.688845 45.7128C-0.104043 47.5464 -0.0368573 50.0987 0.0504948 54.7398C0.0908111 56.6473 0.13785 58.8167 0.13785 61.4227C0.13785 62.9272 1.3675 64.1564 2.87265 64.1564H48.2286C49.7337 64.1564 50.9633 62.9272 50.9633 61.4227C50.9633 58.8033 51.0104 56.6473 51.0507 54.7398C51.1784 49.3397 51.2321 46.6262 49.9286 44.7724ZM19.8996 32.1454C15.9486 29.5528 15.8881 25.7378 16.0628 21.325C20.1012 20.1362 25.6178 16.0324 28.1913 12.6002C29.085 15.9115 31.0538 18.2824 34.7158 18.3563C35.119 20.5996 35.2803 24.8243 34.9913 26.7184C33.9498 33.361 25.181 35.6111 19.8996 32.1454ZM20.2893 41.8172V34.6708C23.6154 36.2156 27.5261 36.1753 30.8388 34.6305V41.8172C30.8388 48.7486 20.2893 48.7486 20.2893 41.8172ZM8.12049 23.8101C8.68492 23.0982 8.89994 22.2788 8.77227 21.3787C7.32761 11.1965 15.2095 2.00826 25.5708 2.00826C43.5922 2.00826 49.0013 26.6042 32.8479 34.2812C32.8479 34.0058 32.8479 33.7036 32.8479 33.4551C35.1056 31.823 36.5838 29.5192 36.9736 26.987C37.3499 24.5691 37.0744 19.1757 36.4831 17.0331C36.3554 16.5697 35.9186 16.2675 35.4416 16.2943C33.2712 16.4555 30.3012 15.9316 29.6561 9.37628C29.5419 8.23447 27.9024 8.17403 27.6739 9.26211C26.8945 12.9092 18.502 18.8063 14.8668 19.5317C14.4166 19.619 14.0873 20.0086 14.0672 20.472C13.8656 25.2139 13.664 30.0901 18.2802 33.4618V41.8104C18.2802 43.2881 18.717 44.6583 19.483 45.8068C13.0458 50.8576 4.10229 43.4224 8.00625 36.2021C8.59756 35.1141 8.53038 33.8581 7.83156 32.8439C5.96357 30.1035 6.09124 26.4162 8.12049 23.8101ZM49.0618 54.6793C49.0214 56.6003 48.9744 58.7764 48.9744 61.4026C48.9744 61.8056 48.6452 62.128 48.2487 62.128H41.3009V57.2115C41.3009 55.895 39.2918 55.895 39.2918 57.2115V62.128H11.8229V57.2115C11.8229 55.895 9.81377 55.895 9.81377 57.2115V62.128H2.87935C2.47619 62.128 2.15367 61.7989 2.15367 61.4026C2.15367 58.7697 2.10663 56.5868 2.06631 54.6793C1.89161 46.3307 1.87818 45.4038 6.13156 44.1075C8.90667 49.6016 16.0561 51.1397 20.8067 47.3046C25.47 51.3278 32.8479 48.0837 32.8479 41.8037V40.8634C35.9186 41.7567 46.9183 44.0135 48.289 45.9411C49.2096 47.2441 49.1625 49.8904 49.0618 54.6793Z" fill="black"/>
</svg>
