<svg width="54" height="66" viewBox="0 0 54 66" fill="none" xmlns="http://www.w3.org/2000/svg">
<path d="M44.79 57.9428V64.0884" stroke="black" stroke-width="2" stroke-miterlimit="10" stroke-linecap="round" stroke-linejoin="round"/>
<path d="M8.78125 64.0884V26.1803C8.78125 24.078 10.488 22.372 12.5912 22.372H40.9873C43.0905 22.372 44.7972 24.078 44.7972 26.1803V53.4964" stroke="black" stroke-width="2" stroke-miterlimit="10" stroke-linecap="round" stroke-linejoin="round"/>
<path d="M37.3722 37.6857H16.2061C15.1512 37.6857 14.2979 36.8327 14.2979 35.7782V31.7483C14.2979 30.6938 15.1512 29.8408 16.2061 29.8408H37.3722C38.4272 29.8408 39.2806 30.6938 39.2806 31.7483V35.7782C39.2738 36.8327 38.4205 37.6857 37.3722 37.6857Z" stroke="black" stroke-width="2" stroke-miterlimit="10" stroke-linecap="round" stroke-linejoin="round"/>
<path d="M14.9092 44.4963H39.0116" stroke="black" stroke-width="2" stroke-miterlimit="10" stroke-linecap="round" stroke-linejoin="round"/>
<path d="M19.5186 56.8077H34.402" stroke="black" stroke-width="2" stroke-miterlimit="10" stroke-linecap="round" stroke-linejoin="round"/>
<path d="M14.9092 49.7352H39.0116" stroke="black" stroke-width="2" stroke-miterlimit="10" stroke-linecap="round" stroke-linejoin="round"/>
<path d="M1 32.5812V59.0107C1 61.8182 3.27115 64.0884 6.07986 64.0884H47.4915C50.3002 64.0884 52.5713 61.8182 52.5713 59.0107V17.1869C52.5713 15.8368 52.0338 14.5473 51.0863 13.5935L39.9725 2.48435C39.0183 1.53061 37.7282 1 36.3776 1H6.07986C3.27115 1 1 3.27019 1 6.0777V7.55534C1 8.38147 1.67193 9.05313 2.49841 9.05313C3.3249 9.05313 3.99682 9.72478 3.99682 10.5509V17.1331C3.99682 17.9593 3.3249 18.6309 2.49841 18.6309C1.67193 18.6309 1 19.3026 1 20.1287V28.2557" stroke="black" stroke-width="2" stroke-miterlimit="10" stroke-linecap="round" stroke-linejoin="round"/>
<path d="M10.5552 9.32178H31.2778" stroke="black" stroke-width="2" stroke-miterlimit="10" stroke-linecap="round" stroke-linejoin="round"/>
<path d="M10.5552 14.7353H31.2778" stroke="black" stroke-width="2" stroke-miterlimit="10" stroke-linecap="round" stroke-linejoin="round"/>
</svg>
