<svg width="47" height="47" viewBox="0 0 47 47" fill="none" xmlns="http://www.w3.org/2000/svg">
<path d="M25.6054 41.5768C25.6054 41.9954 25.2657 42.3349 24.8467 42.3349H4.95121C4.53221 42.3349 4.1925 41.9954 4.1925 41.5768C4.1925 41.1582 4.53221 40.8187 4.95121 40.8187H24.8467C25.2657 40.8187 25.6054 41.1582 25.6054 41.5768ZM4.95121 15.042H15.7968C16.2158 15.042 16.5555 14.7026 16.5555 14.2839C16.5555 13.8653 16.2158 13.5259 15.7968 13.5259H4.95121C4.53221 13.5259 4.1925 13.8653 4.1925 14.2839C4.1925 14.7026 4.53221 15.042 4.95121 15.042ZM46.5243 43.8773L44.4978 45.9641C44.1674 46.3044 43.727 46.4753 43.2862 46.4753C42.8625 46.4753 42.4384 46.3175 42.111 45.9999L36.4977 40.5577C36.1749 40.2448 35.9934 39.824 35.9866 39.3726C35.9823 39.0894 36.0475 38.8161 36.1739 38.572L35.7275 38.1392H34.232V41.8114C34.232 42.2301 33.8923 42.5695 33.4733 42.5695H29.7979V46.2419C29.7979 46.6606 29.4582 47 29.0392 47H0.758704C0.33971 47 0 46.6606 0 46.2419V9.6188C0 9.20016 0.33971 8.86073 0.758704 8.86073H4.43406V5.18848C4.43406 4.76984 4.77377 4.43041 5.19276 4.43041H8.86811V0.758065C8.86811 0.339423 9.20782 0 9.62682 0H33.3253C33.5266 0 33.7196 0.0798811 33.8618 0.222018L38.4437 4.80006C38.586 4.9422 38.6659 5.13503 38.6659 5.33611V35.2857L39.0846 35.6917C39.2702 35.6194 39.4687 35.5784 39.6742 35.5754C40.1221 35.5704 40.5524 35.7372 40.8752 36.0504L46.4883 41.4926C47.1563 42.1404 47.1723 43.2102 46.5243 43.8773ZM37.9182 36.6733L35.8614 34.6791C35.6378 34.9539 35.4014 35.2176 35.1528 35.4695L37.1792 37.4342L37.9182 36.6733ZM36.8012 27.7705C36.8012 22.5571 32.5563 18.3157 27.3385 18.3157C22.1207 18.3157 17.8756 22.5571 17.8756 27.7705C17.8756 32.9839 22.1207 37.2252 27.3385 37.2252C32.5563 37.2252 36.8012 32.9839 36.8012 27.7705ZM25.2159 13.4389H27.2075L25.2159 11.449V13.4389ZM29.65 9.00846H31.6416L29.65 7.01854V9.00846ZM37.1487 33.8146V32.6944C37.0232 32.9429 36.8889 33.1863 36.7454 33.4236L37.1487 33.8146ZM34.0841 4.57805H36.0757L34.0841 2.58813V4.57805ZM10.3856 4.43041H28.8913C29.0925 4.43041 29.2855 4.51029 29.4278 4.65243L34.0097 9.23048C34.1519 9.37261 34.2319 9.56545 34.2319 9.76652V19.238C35.4425 20.2163 36.4414 21.4457 37.1486 22.8466V6.09418H33.3254C32.9064 6.09418 32.5667 5.75475 32.5667 5.33611V1.51613H10.3856V4.43041ZM5.95156 8.86073H24.4572C24.6585 8.86073 24.8514 8.94061 24.9937 9.08275L29.5756 13.6608C29.7179 13.8029 29.7978 13.9958 29.7978 14.1968V17.0771C30.8333 17.3148 31.813 17.6996 32.7145 18.2075V10.5245H28.8913C28.4723 10.5245 28.1326 10.1851 28.1326 9.76643V5.94654H5.95156V8.86073ZM28.2804 45.4839V38.7006C27.9698 38.7271 27.6558 38.7415 27.3384 38.7415C26.4516 38.7415 25.5893 38.6351 24.763 38.4359H4.95121C4.53221 38.4359 4.1925 38.0964 4.1925 37.6778C4.1925 37.2592 4.53221 36.9197 4.95121 36.9197H21.2864C20.3024 36.2678 19.4288 35.4624 18.701 34.5369H4.95121C4.53221 34.5369 4.1925 34.1975 4.1925 33.7789C4.1925 33.3602 4.53221 33.0208 4.95121 33.0208H17.6995C17.2908 32.2747 16.9668 31.476 16.7395 30.638H4.95121C4.53221 30.638 4.1925 30.2986 4.1925 29.88C4.1925 29.4613 4.53221 29.1219 4.95121 29.1219H16.4415C16.3868 28.679 16.3581 28.228 16.3581 27.7706C16.3581 27.4226 16.3752 27.0786 16.4071 26.7389H4.95121C4.53221 26.7389 4.1925 26.3995 4.1925 25.9809C4.1925 25.5622 4.53221 25.2228 4.95121 25.2228H16.6578C16.8574 24.3877 17.1526 23.5894 17.5316 22.84H4.95121C4.53221 22.84 4.1925 22.5006 4.1925 22.0819C4.1925 21.6633 4.53221 21.3239 4.95121 21.3239H18.4597C19.1232 20.4141 19.923 19.6097 20.8292 18.9411H4.95121C4.53221 18.9411 4.1925 18.6017 4.1925 18.183C4.1925 17.7644 4.53221 17.425 4.95121 17.425H23.6846C24.8282 17.0205 26.0579 16.7997 27.3384 16.7997C27.6557 16.7997 27.9697 16.814 28.2804 16.8405V14.9551H24.4572C24.0382 14.9551 23.6985 14.6157 23.6985 14.197V10.3771H1.51741V45.4839H28.2804ZM32.7146 41.0535V37.3334C31.8131 37.8413 30.8334 38.2261 29.7979 38.4637V41.0534H32.7146V41.0535ZM45.4316 42.5805L39.8185 37.1383C39.7788 37.0998 39.7327 37.0913 39.7 37.0913C39.6991 37.0913 39.6981 37.0913 39.6972 37.0913C39.6645 37.0918 39.6171 37.101 39.5774 37.1418L37.5507 39.2286C37.511 39.2695 37.5033 39.3171 37.5037 39.3498C37.5042 39.3826 37.5134 39.4299 37.5542 39.4695L43.1675 44.9118C43.2339 44.9763 43.3443 44.9745 43.4087 44.9082L45.4353 42.8215C45.4998 42.7552 45.498 42.6449 45.4316 42.5805ZM35.3544 27.7705C35.3544 32.1868 31.7584 35.7797 27.3384 35.7797C22.9184 35.7797 19.3224 32.1868 19.3224 27.7705C19.3224 23.3542 22.9184 19.7613 27.3384 19.7613C31.7584 19.7613 35.3544 23.3542 35.3544 27.7705ZM33.837 27.7705C33.837 24.1902 30.9217 21.2774 27.3384 21.2774C23.755 21.2774 20.8398 24.1902 20.8398 27.7705C20.8398 31.3508 23.755 34.2636 27.3384 34.2636C30.9217 34.2636 33.837 31.3509 33.837 27.7705Z" fill="#AD2635"/>
</svg>
