<svg width="59" height="59" viewBox="0 0 59 59" fill="none" xmlns="http://www.w3.org/2000/svg">
<path d="M10.6502 33.2469H13.7345C14.4535 33.2469 15.038 32.6625 15.038 31.9439V22.1176C15.038 21.3989 14.4535 20.8145 13.7345 20.8145H10.6502C9.93125 20.8145 9.3467 21.3989 9.3467 22.1176V31.9439C9.3467 32.6625 9.93125 33.2469 10.6502 33.2469ZM10.7645 22.2317H13.6135V31.823H10.7645V22.2317ZM20.3933 16.2675H17.3092C16.5902 16.2675 16.0056 16.8518 16.0056 17.5705V31.9439C16.0056 32.6625 16.5902 33.2469 17.3092 33.2469H20.3933C21.1123 33.2469 21.6969 32.6625 21.6969 31.9439V17.5705C21.7037 16.8518 21.119 16.2675 20.3933 16.2675ZM20.2792 31.823H17.4301V17.6846H20.2792V31.823ZM12.189 17.6981C13.3649 17.6981 14.3258 16.7376 14.3258 15.5622C14.3258 15.3742 14.2988 15.1928 14.2518 15.0182L17.5914 12.7413C17.9475 13.0032 18.3776 13.1577 18.8479 13.1577C19.4997 13.1577 20.0842 12.8622 20.474 12.3987L23.3768 13.5002C23.3768 13.5137 23.3768 13.5338 23.3768 13.5473C23.3768 14.7226 24.3376 15.6831 25.5135 15.6831C26.6894 15.6831 27.6503 14.7226 27.6503 13.5473C27.6503 13.3189 27.6167 13.104 27.5495 12.8958L31.0033 10.2763C31.3393 10.498 31.7424 10.6256 32.1725 10.6256C33.3484 10.6256 34.3093 9.6651 34.3093 8.4897C34.3093 7.31431 33.3484 6.35384 32.1725 6.35384C30.9966 6.35384 30.0357 7.31431 30.0357 8.4897C30.0357 8.71807 30.0693 8.933 30.1365 9.14121L26.6827 11.7607C26.3467 11.539 25.9436 11.4114 25.5135 11.4114C24.8617 11.4114 24.2772 11.7069 23.8875 12.1704L20.9847 11.0689C20.9847 11.0554 20.9847 11.0353 20.9847 11.0218C20.9847 9.84645 20.0238 8.88598 18.8479 8.88598C17.672 8.88598 16.7111 9.84645 16.7111 11.0218C16.7111 11.2099 16.738 11.3912 16.785 11.5659L13.4455 13.8428C13.0894 13.5808 12.6593 13.4264 12.189 13.4264C11.0131 13.4264 10.0522 14.3868 10.0522 15.5622C10.0589 16.7376 11.0131 17.6981 12.189 17.6981ZM32.1792 7.77775C32.5689 7.77775 32.8915 8.10014 32.8915 8.4897C32.8915 8.87926 32.5689 9.20166 32.1792 9.20166C31.7895 9.20166 31.4669 8.87926 31.4669 8.4897C31.4669 8.10014 31.7827 7.77775 32.1792 7.77775ZM25.5135 12.8286C25.9032 12.8286 26.2258 13.151 26.2258 13.5405C26.2258 13.9301 25.9032 14.2525 25.5135 14.2525C25.1238 14.2525 24.8013 13.9301 24.8013 13.5405C24.8013 13.151 25.1238 12.8286 25.5135 12.8286ZM18.8547 10.3032C19.2444 10.3032 19.5669 10.6256 19.5669 11.0151C19.5669 11.4047 19.2444 11.7271 18.8547 11.7271C18.4649 11.7271 18.1424 11.4047 18.1424 11.0151C18.1424 10.6256 18.4582 10.3032 18.8547 10.3032ZM12.189 14.8503C12.5787 14.8503 12.9013 15.1727 12.9013 15.5622C12.9013 15.9518 12.5787 16.2742 12.189 16.2742C11.7993 16.2742 11.4767 15.9518 11.4767 15.5622C11.4767 15.1727 11.7993 14.8503 12.189 14.8503ZM57.4508 52.9666L51.8267 47.3449C51.3496 46.868 50.6709 46.7001 50.0528 46.8411L46.5251 43.315C49.7235 38.6134 49.2464 32.1386 45.0804 27.9744C44.8519 27.746 44.6101 27.5244 44.3682 27.3162V3.59335C44.3682 1.61197 42.7555 0 40.7733 0H10.5495C10.3614 0 10.1799 0.0738803 10.0455 0.208211L0.208341 10.0412C0.0739527 10.1756 0 10.3569 0 10.545V54.7532C0 56.7346 1.61264 58.3466 3.59486 58.3466H40.7733C42.7555 58.3466 44.3682 56.7346 44.3682 54.7532V47.5397L46.861 50.0315C46.7199 50.6494 46.8879 51.3211 47.365 51.8047L52.9891 57.4264C53.5804 58.0175 54.3734 58.3466 55.22 58.3466C56.0667 58.3466 56.8595 58.0175 57.4508 57.4264C58.0421 56.8353 58.3714 56.0428 58.3714 55.1965C58.3714 54.3502 58.0421 53.5577 57.4508 52.9666ZM48.8433 47.6404L47.6607 48.8225L44.469 45.6322C44.6773 45.4508 44.8788 45.2627 45.0804 45.0612C45.282 44.8598 45.4702 44.6583 45.6516 44.4501L48.8433 47.6404ZM44.0725 44.0538C39.9132 48.2113 33.1535 48.2113 28.9942 44.0538C24.8349 39.8962 24.8349 33.1394 28.9942 28.9819C31.01 26.9669 33.6843 25.8587 36.5333 25.8587C39.3824 25.8587 42.0567 26.9669 44.0725 28.9819C48.2318 33.1394 48.2318 39.8962 44.0725 44.0538ZM26.938 29.1766C26.3064 30.0028 25.7891 30.8961 25.3993 31.823H24.089V20.2101H26.938V29.1766ZM33.6037 24.7975C32.6092 25.046 31.6551 25.4154 30.7547 25.9057V15.1592H33.6037V24.7975ZM9.8372 2.42467V7.65685C9.8372 8.8524 8.8629 9.8263 7.66685 9.8263H2.43242L9.8372 2.42467ZM40.7733 56.9227H3.59486C2.39881 56.9227 1.42451 55.9488 1.42451 54.7532V11.2502H7.66685C9.64907 11.2502 11.2617 9.63823 11.2617 7.65685V1.42391H40.7733C41.9694 1.42391 42.9437 2.3978 42.9437 3.59335V26.2751C41.0421 25.0796 38.8381 24.4415 36.5333 24.4415C36.0227 24.4415 35.5187 24.4751 35.0215 24.5355V15.045C35.0215 14.3264 34.4369 13.742 33.718 13.742H30.6337C29.9147 13.742 29.3302 14.3264 29.3302 15.045V26.8191C28.9942 27.0676 28.6716 27.3363 28.3625 27.6184V20.0959C28.3625 19.3772 27.778 18.7929 27.059 18.7929H23.9748C23.2559 18.7929 22.6712 19.3772 22.6712 20.0959V31.9439C22.6712 32.6625 23.2559 33.2469 23.9748 33.2469H24.9088C24.2503 35.5909 24.3175 38.0962 25.0969 40.4134H7.04191C6.65219 40.4134 6.3297 40.7291 6.3297 41.1254C6.3297 41.5216 6.64547 41.8373 7.04191 41.8373H25.6815C26.2527 43.006 27.0187 44.0941 27.9863 45.0612C28.1207 45.1956 28.2483 45.3165 28.3894 45.4441H7.04191C6.65219 45.4441 6.3297 45.7598 6.3297 46.156C6.3297 46.5456 6.64547 46.868 7.04191 46.868H30.2977C32.206 48.0165 34.3697 48.5942 36.5333 48.5942C38.7642 48.5942 40.9883 47.9829 42.9437 46.7605V54.7465C42.9437 55.9488 41.9694 56.9227 40.7733 56.9227ZM56.4429 56.4189C56.1204 56.7413 55.6837 56.9227 55.22 56.9227C54.7564 56.9227 54.3196 56.7413 53.997 56.4189L48.3729 50.7972C48.2856 50.7099 48.2318 50.589 48.2318 50.4613C48.2318 50.3337 48.2788 50.2128 48.3729 50.1255L50.1468 48.3524C50.2342 48.265 50.3551 48.2113 50.4828 48.2113C50.6105 48.2113 50.7314 48.2583 50.8188 48.3524L56.4429 53.9741C56.7654 54.2965 56.9469 54.7331 56.9469 55.1965C56.9469 55.66 56.7654 56.0898 56.4429 56.4189ZM29.9954 29.9759C26.3871 33.5827 26.3871 39.4529 29.9954 43.0597C31.7962 44.8598 34.1681 45.7665 36.5401 45.7665C38.912 45.7665 41.2772 44.8665 43.0847 43.0597C46.6931 39.4529 46.6931 33.5827 43.0847 29.9759C39.4697 26.3691 33.6037 26.3691 29.9954 29.9759ZM42.0701 42.0522C40.5448 43.5769 38.5357 44.3426 36.5333 44.3426C34.531 44.3426 32.5219 43.5769 30.9966 42.0522C27.946 39.0029 27.946 34.0327 30.9966 30.9834C32.5219 29.4587 34.531 28.693 36.5333 28.693C38.5357 28.693 40.5448 29.4587 42.0701 30.9834C45.1274 34.0327 45.1274 39.0029 42.0701 42.0522ZM22.8997 51.1867C22.8997 51.5763 22.5839 51.8987 22.1875 51.8987H7.04864C6.65891 51.8987 6.33642 51.583 6.33642 51.1867C6.33642 50.7972 6.65219 50.4748 7.04864 50.4748H22.1875C22.5772 50.4748 22.8997 50.7905 22.8997 51.1867Z" fill="black"/>
</svg>
